<svg width="341" height="106" viewBox="0 0 341 106" fill="none" xmlns="http://www.w3.org/2000/svg">
<g opacity="0.5">
<path d="M42.5236 74.0704L51.2736 65.3204L60.0236 74.0704H42.5236Z" fill="#FFC188"/>
<rect x="30.7736" y="49.1954" width="41" height="41" stroke="#FFC188"/>
<path d="M137.649 78.4454L128.899 69.6954L137.649 60.9454L137.649 78.4454Z" fill="#FFC188"/>
<rect x="112.774" y="49.1954" width="41" height="41" stroke="#FFC188"/>
<path d="M101.024 65.3204L92.2736 74.0704L83.5236 65.3204L101.024 65.3204Z" fill="#FFC188"/>
<rect x="71.7736" y="49.1954" width="41" height="41" stroke="#FFC188"/>
<path d="M169.899 60.9454L178.649 69.6954L169.899 78.4454L169.899 60.9454Z" fill="#FFC188"/>
<rect x="153.774" y="49.1954" width="41" height="41" stroke="#FFC188"/>
<path d="M80.0866 37.1695C80.3292 37.1695 80.5392 37.1462 80.7166 37.0995C80.9032 37.0435 81.0759 36.9502 81.2346 36.8195C81.4026 36.6795 81.5379 36.4975 81.6406 36.2735C81.7432 36.0495 81.8226 35.7648 81.8786 35.4195C81.9439 35.0648 81.9766 34.6495 81.9766 34.1735C81.9766 33.6415 81.9299 33.1935 81.8366 32.8295C81.7432 32.4562 81.6079 32.1762 81.4306 31.9895C81.2532 31.7935 81.0572 31.6582 80.8426 31.5835C80.6372 31.4995 80.3852 31.4528 80.0866 31.4435V37.1695ZM80.5066 29.4975C81.9626 29.4975 83.1292 29.9175 84.0066 30.7575C84.8932 31.5975 85.3366 32.7548 85.3366 34.2295C85.3366 34.7055 85.2899 35.1675 85.1966 35.6155C85.1126 36.0635 84.9679 36.5022 84.7626 36.9315C84.5572 37.3515 84.3006 37.7202 83.9926 38.0375C83.6846 38.3455 83.2926 38.5975 82.8166 38.7935C82.3406 38.9802 81.8039 39.0735 81.2066 39.0735H78.4486C77.8792 39.0735 77.4686 38.9288 77.2166 38.6395C76.9739 38.3502 76.8526 37.8275 76.8526 37.0715V31.1635C76.8526 30.0528 77.3846 29.4975 78.4486 29.4975H80.5066ZM86.5787 30.4495C86.5787 30.1415 86.7094 29.8895 86.9707 29.6935C87.2414 29.4882 87.6194 29.3855 88.1047 29.3855C89.1221 29.3855 89.6307 29.7402 89.6307 30.4495C89.6307 30.8415 89.5001 31.1168 89.2387 31.2755C88.9867 31.4342 88.6087 31.5135 88.1047 31.5135C87.6661 31.5135 87.3021 31.4295 87.0127 31.2615C86.7234 31.0935 86.5787 30.8228 86.5787 30.4495ZM89.6167 37.5755C89.6167 38.1355 89.5001 38.5275 89.2667 38.7515C89.0334 38.9662 88.6227 39.0735 88.0347 39.0735C87.4841 39.0735 87.1061 38.9475 86.9007 38.6955C86.7047 38.4342 86.6067 38.0095 86.6067 37.4215V33.9775C86.6067 33.5015 86.7327 33.1188 86.9847 32.8295C87.2461 32.5402 87.5914 32.3955 88.0207 32.3955C88.5247 32.3955 88.9167 32.5075 89.1967 32.7315C89.4767 32.9462 89.6167 33.3475 89.6167 33.9355V37.5755ZM93.8964 37.5755C93.8964 38.1355 93.7797 38.5275 93.5464 38.7515C93.313 38.9662 92.8977 39.0735 92.3004 39.0735C91.7497 39.0735 91.3764 38.9475 91.1804 38.6955C90.9844 38.4342 90.8864 38.0095 90.8864 37.4215V33.9775C90.8864 33.6602 90.9424 33.3848 91.0544 33.1515C91.1664 32.9088 91.3297 32.7222 91.5444 32.5915C91.759 32.4608 92.011 32.3955 92.3004 32.3955C93.0097 32.3955 93.4764 32.6008 93.7004 33.0115C94.2417 32.6008 94.7644 32.3955 95.2684 32.3955C96.2484 32.3955 96.7384 32.8622 96.7384 33.7955C96.7384 34.1688 96.631 34.4722 96.4164 34.7055C96.2017 34.9388 95.9217 35.0555 95.5764 35.0555C95.371 35.0555 95.203 35.0135 95.0724 34.9295C94.951 34.8455 94.8344 34.7615 94.7224 34.6775C94.6197 34.5935 94.4984 34.5515 94.3584 34.5515C94.153 34.5515 93.999 34.6215 93.8964 34.7615V37.5755ZM101.066 39.1575C99.9278 39.1575 98.9851 38.8635 98.2384 38.2755C97.5011 37.6875 97.1324 36.8848 97.1324 35.8675C97.1324 34.7662 97.4964 33.8982 98.2244 33.2635C98.9618 32.6195 99.9091 32.2975 101.066 32.2975C102.158 32.2975 102.956 32.4935 103.46 32.8855C103.974 33.2682 104.23 33.7955 104.23 34.4675C104.23 34.5982 104.212 34.7242 104.174 34.8455C104.146 34.9668 104.095 35.0882 104.02 35.2095C103.955 35.3215 103.862 35.4288 103.74 35.5315C103.628 35.6248 103.498 35.7135 103.348 35.7975C103.199 35.8722 103.022 35.9328 102.816 35.9795C102.611 36.0168 102.392 36.0355 102.158 36.0355L100.184 36.0495C100.278 36.3482 100.446 36.5862 100.688 36.7635C100.931 36.9315 101.239 37.0155 101.612 37.0155C102.014 37.0155 102.424 36.9642 102.844 36.8615C103.022 36.8148 103.213 36.7402 103.418 36.6375C103.633 36.5348 103.787 36.4835 103.88 36.4835C104.039 36.4835 104.16 36.5302 104.244 36.6235C104.338 36.7168 104.384 36.8335 104.384 36.9735C104.384 37.1415 104.31 37.3468 104.16 37.5895C104.011 37.8228 103.801 38.0608 103.53 38.3035C103.269 38.5368 102.919 38.7375 102.48 38.9055C102.042 39.0735 101.57 39.1575 101.066 39.1575ZM100.114 35.1535C100.758 35.1442 101.108 35.1395 101.164 35.1395C101.304 35.1395 101.407 35.0555 101.472 34.8875C101.519 34.7662 101.542 34.5982 101.542 34.3835C101.542 33.7955 101.365 33.5015 101.01 33.5015C100.88 33.5015 100.749 33.5715 100.618 33.7115C100.497 33.8515 100.39 34.0522 100.296 34.3135C100.203 34.5655 100.142 34.8455 100.114 35.1535ZM109.687 33.8375C109.687 33.6228 109.565 33.5155 109.323 33.5155C109.145 33.5155 108.987 33.6135 108.847 33.8095C108.707 34.0055 108.599 34.2528 108.525 34.5515C108.45 34.8408 108.413 35.1442 108.413 35.4615C108.413 35.9282 108.553 36.3062 108.833 36.5955C109.122 36.8848 109.509 37.0295 109.995 37.0295C110.471 37.0295 110.881 36.9735 111.227 36.8615C111.367 36.8242 111.535 36.7542 111.731 36.6515C111.936 36.5488 112.081 36.4975 112.165 36.4975C112.295 36.4975 112.403 36.5208 112.487 36.5675C112.571 36.6142 112.627 36.6702 112.655 36.7355C112.692 36.8008 112.711 36.8708 112.711 36.9455C112.711 37.0762 112.664 37.2348 112.571 37.4215C112.487 37.6082 112.351 37.8042 112.165 38.0095C111.978 38.2148 111.759 38.4062 111.507 38.5835C111.264 38.7515 110.961 38.8915 110.597 39.0035C110.233 39.1155 109.85 39.1715 109.449 39.1715C108.291 39.1715 107.339 38.8635 106.593 38.2475C105.846 37.6222 105.473 36.7682 105.473 35.6855C105.473 34.9948 105.641 34.3928 105.977 33.8795C106.322 33.3568 106.793 32.9648 107.391 32.7035C107.988 32.4328 108.674 32.2975 109.449 32.2975C110.186 32.2975 110.793 32.3862 111.269 32.5635C111.754 32.7315 112.099 32.9602 112.305 33.2495C112.51 33.5388 112.613 33.8842 112.613 34.2855C112.613 34.4628 112.575 34.6448 112.501 34.8315C112.435 35.0182 112.328 35.2048 112.179 35.3915C112.039 35.5782 111.829 35.7322 111.549 35.8535C111.269 35.9655 110.942 36.0215 110.569 36.0215C110.401 36.0215 110.261 36.0122 110.149 35.9935C110.046 35.9748 109.934 35.9375 109.813 35.8815C109.701 35.8162 109.617 35.7135 109.561 35.5735C109.505 35.4335 109.477 35.2562 109.477 35.0415C109.477 34.8548 109.509 34.6308 109.575 34.3695C109.649 34.0988 109.687 33.9215 109.687 33.8375ZM114.391 36.0775V34.4255C114.158 34.4162 113.971 34.3788 113.831 34.3135C113.691 34.2388 113.588 34.1455 113.523 34.0335C113.467 33.9215 113.439 33.7815 113.439 33.6135C113.439 33.0815 113.761 32.7922 114.405 32.7455V31.4435C114.405 31.0888 114.662 30.7715 115.175 30.4915C115.688 30.2022 116.197 30.0575 116.701 30.0575C117.009 30.0575 117.21 30.1462 117.303 30.3235C117.396 30.5008 117.443 30.7668 117.443 31.1215L117.457 32.7315H117.835C118.348 32.7315 118.698 32.8015 118.885 32.9415C119.081 33.0722 119.179 33.3148 119.179 33.6695C119.179 33.8188 119.151 33.9448 119.095 34.0475C119.039 34.1502 118.946 34.2295 118.815 34.2855C118.694 34.3415 118.544 34.3835 118.367 34.4115C118.19 34.4302 117.97 34.4395 117.709 34.4395H117.457V35.9795C117.457 36.1288 117.462 36.2548 117.471 36.3575C117.49 36.4508 117.513 36.5255 117.541 36.5815C117.569 36.6375 117.606 36.6748 117.653 36.6935C117.709 36.7122 117.774 36.7215 117.849 36.7215C117.961 36.7215 118.054 36.6842 118.129 36.6095C118.204 36.5255 118.26 36.4368 118.297 36.3435C118.344 36.2408 118.4 36.1522 118.465 36.0775C118.54 35.9935 118.624 35.9515 118.717 35.9515C118.932 35.9515 119.095 36.0028 119.207 36.1055C119.328 36.2082 119.389 36.3342 119.389 36.4835C119.389 36.7355 119.338 37.0062 119.235 37.2955C119.142 37.5848 119.002 37.8648 118.815 38.1355C118.628 38.4062 118.367 38.6302 118.031 38.8075C117.704 38.9848 117.336 39.0735 116.925 39.0735C116.001 39.0735 115.348 38.8402 114.965 38.3735C114.582 37.9068 114.391 37.1415 114.391 36.0775ZM120.663 30.4495C120.663 30.1415 120.793 29.8895 121.055 29.6935C121.325 29.4882 121.703 29.3855 122.189 29.3855C123.206 29.3855 123.715 29.7402 123.715 30.4495C123.715 30.8415 123.584 31.1168 123.323 31.2755C123.071 31.4342 122.693 31.5135 122.189 31.5135C121.75 31.5135 121.386 31.4295 121.097 31.2615C120.807 31.0935 120.663 30.8228 120.663 30.4495ZM123.701 37.5755C123.701 38.1355 123.584 38.5275 123.351 38.7515C123.117 38.9662 122.707 39.0735 122.119 39.0735C121.568 39.0735 121.19 38.9475 120.985 38.6955C120.789 38.4342 120.691 38.0095 120.691 37.4215V33.9775C120.691 33.5015 120.817 33.1188 121.069 32.8295C121.33 32.5402 121.675 32.3955 122.105 32.3955C122.609 32.3955 123.001 32.5075 123.281 32.7315C123.561 32.9462 123.701 33.3475 123.701 33.9355V37.5755ZM129.492 35.7555C129.492 35.2702 129.432 34.8455 129.31 34.4815C129.189 34.1082 129.012 33.9215 128.778 33.9215C128.62 33.9215 128.48 34.0148 128.358 34.2015C128.237 34.3882 128.148 34.6168 128.092 34.8875C128.036 35.1582 128.008 35.4475 128.008 35.7555C128.008 36.2315 128.074 36.6515 128.204 37.0155C128.335 37.3702 128.522 37.5475 128.764 37.5475C129.007 37.5475 129.189 37.3702 129.31 37.0155C129.432 36.6608 129.492 36.2408 129.492 35.7555ZM128.764 39.1715C128.036 39.1715 127.378 39.0408 126.79 38.7795C126.212 38.5182 125.745 38.1262 125.39 37.6035C125.045 37.0808 124.872 36.4695 124.872 35.7695C124.872 34.7055 125.236 33.8608 125.964 33.2355C126.692 32.6102 127.626 32.2975 128.764 32.2975C129.903 32.2975 130.832 32.6102 131.55 33.2355C132.269 33.8608 132.628 34.7055 132.628 35.7695C132.628 36.8242 132.26 37.6548 131.522 38.2615C130.794 38.8682 129.875 39.1715 128.764 39.1715ZM138.1 35.3075C138.1 34.7848 137.895 34.5235 137.484 34.5235C137.288 34.5235 137.125 34.6075 136.994 34.7755C136.873 34.9342 136.803 35.1488 136.784 35.4195V37.5755C136.784 38.1448 136.668 38.5368 136.434 38.7515C136.201 38.9662 135.79 39.0735 135.202 39.0735C134.652 39.0735 134.274 38.9475 134.068 38.6955C133.872 38.4342 133.774 38.0095 133.774 37.4215V33.9775C133.774 33.5015 133.9 33.1188 134.152 32.8295C134.414 32.5402 134.759 32.3955 135.188 32.3955C135.543 32.3955 135.842 32.4468 136.084 32.5495C136.327 32.6522 136.509 32.8295 136.63 33.0815C137.358 32.6055 138.245 32.3675 139.29 32.3675C139.953 32.3675 140.429 32.6288 140.718 33.1515C141.017 33.6742 141.166 34.5328 141.166 35.7275C141.166 36.3155 141.152 36.7962 141.124 37.1695C141.096 37.5335 141.05 37.8508 140.984 38.1215C140.928 38.3828 140.835 38.5788 140.704 38.7095C140.574 38.8402 140.42 38.9335 140.242 38.9895C140.074 39.0455 139.855 39.0735 139.584 39.0735C139.062 39.0735 138.684 38.9755 138.45 38.7795C138.226 38.5835 138.114 38.2942 138.114 37.9115L138.1 35.3075ZM145.719 32.2975C146.587 32.2975 147.311 32.4748 147.889 32.8295C148.468 33.1842 148.757 33.5715 148.757 33.9915C148.757 34.1128 148.706 34.2248 148.603 34.3275C148.501 34.4302 148.37 34.4815 148.211 34.4815C148.071 34.4815 147.917 34.4348 147.749 34.3415C147.581 34.2388 147.423 34.1315 147.273 34.0195C147.124 33.9075 146.928 33.8048 146.685 33.7115C146.443 33.6182 146.186 33.5715 145.915 33.5715C145.551 33.5715 145.369 33.6835 145.369 33.9075C145.369 34.0662 145.463 34.1922 145.649 34.2855C145.836 34.3788 146.107 34.4768 146.461 34.5795C146.825 34.6822 147.101 34.7802 147.287 34.8735C147.987 35.1442 148.468 35.4382 148.729 35.7555C148.991 36.0635 149.121 36.4742 149.121 36.9875C149.121 37.2395 149.051 37.4915 148.911 37.7435C148.771 37.9862 148.561 38.2195 148.281 38.4435C148.001 38.6582 147.619 38.8355 147.133 38.9755C146.657 39.1062 146.111 39.1715 145.495 39.1715C144.291 39.1715 143.391 38.8962 142.793 38.3455C142.504 38.0748 142.359 37.7948 142.359 37.5055C142.359 37.3282 142.415 37.1882 142.527 37.0855C142.649 36.9828 142.817 36.9315 143.031 36.9315C143.246 36.9315 143.573 37.0388 144.011 37.2535C144.45 37.4588 144.856 37.5615 145.229 37.5615C145.743 37.5615 145.999 37.4355 145.999 37.1835C145.999 37.0528 145.864 36.9502 145.593 36.8755C145.323 36.7915 144.968 36.6935 144.529 36.5815C144.091 36.4695 143.741 36.3295 143.479 36.1615C143.069 35.9842 142.779 35.7648 142.611 35.5035C142.453 35.2328 142.373 34.9062 142.373 34.5235C142.373 33.8702 142.681 33.3382 143.297 32.9275C143.923 32.5075 144.73 32.2975 145.719 32.2975Z" fill="#FFC188"/>
<path d="M229.604 32.8015C229.604 32.4562 229.571 32.1855 229.506 31.9895C229.441 31.7842 229.324 31.6302 229.156 31.5275C228.997 31.4248 228.82 31.3595 228.624 31.3315C228.437 31.2942 228.176 31.2755 227.84 31.2755V34.3555C228.101 34.3555 228.33 34.3322 228.526 34.2855C228.731 34.2388 228.918 34.1595 229.086 34.0475C229.254 33.9355 229.38 33.7768 229.464 33.5715C229.557 33.3568 229.604 33.1002 229.604 32.8015ZM227.84 36.9735C227.84 37.7295 227.7 38.2708 227.42 38.5975C227.14 38.9148 226.711 39.0735 226.132 39.0735C225.553 39.0735 225.129 38.9288 224.858 38.6395C224.587 38.3408 224.452 37.8182 224.452 37.0715V31.1635C224.452 30.5942 224.606 30.1742 224.914 29.9035C225.222 29.6235 225.628 29.4835 226.132 29.4835H228.624C229.231 29.4835 229.791 29.5675 230.304 29.7355C230.817 29.8942 231.261 30.1228 231.634 30.4215C232.017 30.7108 232.311 31.0795 232.516 31.5275C232.731 31.9662 232.838 32.4562 232.838 32.9975C232.838 33.6602 232.647 34.2388 232.264 34.7335C231.881 35.2188 231.377 35.5828 230.752 35.8255C230.127 36.0682 229.422 36.1895 228.638 36.1895H227.84V36.9735ZM236.277 39.1575C235.54 39.1575 234.929 38.8588 234.443 38.2615C233.958 37.6548 233.715 36.8288 233.715 35.7835C233.715 34.7195 233.953 33.8748 234.429 33.2495C234.915 32.6148 235.531 32.2975 236.277 32.2975C237.033 32.2975 237.733 32.5635 238.377 33.0955C238.629 32.6288 239.035 32.3955 239.595 32.3955C240.099 32.3955 240.491 32.5075 240.771 32.7315C241.051 32.9462 241.191 33.3475 241.191 33.9355V37.5755C241.191 38.1355 241.075 38.5275 240.841 38.7515C240.608 38.9662 240.197 39.0735 239.609 39.0735C238.993 39.0735 238.587 38.9008 238.391 38.5555C237.794 38.9568 237.089 39.1575 236.277 39.1575ZM238.181 34.4395C238.023 34.1688 237.817 34.0335 237.565 34.0335C237.323 34.0335 237.127 34.2108 236.977 34.5655C236.828 34.9202 236.753 35.3262 236.753 35.7835C236.753 36.2128 236.823 36.5955 236.963 36.9315C237.103 37.2675 237.299 37.4355 237.551 37.4355C237.813 37.4355 238.023 37.3095 238.181 37.0575V34.4395ZM245.574 36.1195C245.574 36.6515 245.779 36.9175 246.19 36.9175C246.33 36.9175 246.451 36.8755 246.554 36.7915C246.666 36.6982 246.75 36.5722 246.806 36.4135C246.862 36.2548 246.89 36.0728 246.89 35.8675V33.9915C246.89 33.6742 246.946 33.3988 247.058 33.1655C247.17 32.9228 247.333 32.7362 247.548 32.6055C247.762 32.4748 248.014 32.4095 248.304 32.4095C248.808 32.4095 249.2 32.5215 249.48 32.7455C249.76 32.9602 249.9 33.3615 249.9 33.9495V37.5895C249.9 38.1588 249.783 38.5508 249.55 38.7655C249.316 38.9802 248.906 39.0875 248.318 39.0875C248.066 39.0875 247.851 39.0642 247.674 39.0175C247.496 38.9615 247.352 38.8822 247.24 38.7795C247.137 38.6768 247.058 38.5415 247.002 38.3735C246.619 38.6255 246.213 38.8028 245.784 38.9055C245.364 39.0082 244.892 39.0595 244.37 39.0595C243.707 39.0595 243.231 38.8028 242.942 38.2895C242.652 37.7668 242.508 36.9128 242.508 35.7275C242.508 35.1395 242.522 34.6635 242.55 34.2995C242.578 33.9262 242.62 33.6088 242.676 33.3475C242.741 33.0768 242.834 32.8762 242.956 32.7455C243.086 32.6148 243.236 32.5215 243.404 32.4655C243.581 32.4095 243.81 32.3815 244.09 32.3815C244.612 32.3815 244.986 32.4795 245.21 32.6755C245.443 32.8715 245.56 33.1655 245.56 33.5575L245.574 36.1195ZM254.548 32.2975C255.416 32.2975 256.139 32.4748 256.718 32.8295C257.296 33.1842 257.586 33.5715 257.586 33.9915C257.586 34.1128 257.534 34.2248 257.432 34.3275C257.329 34.4302 257.198 34.4815 257.04 34.4815C256.9 34.4815 256.746 34.4348 256.578 34.3415C256.41 34.2388 256.251 34.1315 256.102 34.0195C255.952 33.9075 255.756 33.8048 255.514 33.7115C255.271 33.6182 255.014 33.5715 254.744 33.5715C254.38 33.5715 254.198 33.6835 254.198 33.9075C254.198 34.0662 254.291 34.1922 254.478 34.2855C254.664 34.3788 254.935 34.4768 255.29 34.5795C255.654 34.6822 255.929 34.7802 256.116 34.8735C256.816 35.1442 257.296 35.4382 257.558 35.7555C257.819 36.0635 257.95 36.4742 257.95 36.9875C257.95 37.2395 257.88 37.4915 257.74 37.7435C257.6 37.9862 257.39 38.2195 257.11 38.4435C256.83 38.6582 256.447 38.8355 255.962 38.9755C255.486 39.1062 254.94 39.1715 254.324 39.1715C253.12 39.1715 252.219 38.8962 251.622 38.3455C251.332 38.0748 251.188 37.7948 251.188 37.5055C251.188 37.3282 251.244 37.1882 251.356 37.0855C251.477 36.9828 251.645 36.9315 251.86 36.9315C252.074 36.9315 252.401 37.0388 252.84 37.2535C253.278 37.4588 253.684 37.5615 254.058 37.5615C254.571 37.5615 254.828 37.4355 254.828 37.1835C254.828 37.0528 254.692 36.9502 254.422 36.8755C254.151 36.7915 253.796 36.6935 253.358 36.5815C252.919 36.4695 252.569 36.3295 252.308 36.1615C251.897 35.9842 251.608 35.7648 251.44 35.5035C251.281 35.2328 251.202 34.9062 251.202 34.5235C251.202 33.8702 251.51 33.3382 252.126 32.9275C252.751 32.5075 253.558 32.2975 254.548 32.2975ZM262.832 39.1575C261.694 39.1575 260.751 38.8635 260.004 38.2755C259.267 37.6875 258.898 36.8848 258.898 35.8675C258.898 34.7662 259.262 33.8982 259.99 33.2635C260.728 32.6195 261.675 32.2975 262.832 32.2975C263.924 32.2975 264.722 32.4935 265.226 32.8855C265.74 33.2682 265.996 33.7955 265.996 34.4675C265.996 34.5982 265.978 34.7242 265.94 34.8455C265.912 34.9668 265.861 35.0882 265.786 35.2095C265.721 35.3215 265.628 35.4288 265.506 35.5315C265.394 35.6248 265.264 35.7135 265.114 35.7975C264.965 35.8722 264.788 35.9328 264.582 35.9795C264.377 36.0168 264.158 36.0355 263.924 36.0355L261.95 36.0495C262.044 36.3482 262.212 36.5862 262.454 36.7635C262.697 36.9315 263.005 37.0155 263.378 37.0155C263.78 37.0155 264.19 36.9642 264.61 36.8615C264.788 36.8148 264.979 36.7402 265.184 36.6375C265.399 36.5348 265.553 36.4835 265.646 36.4835C265.805 36.4835 265.926 36.5302 266.01 36.6235C266.104 36.7168 266.15 36.8335 266.15 36.9735C266.15 37.1415 266.076 37.3468 265.926 37.5895C265.777 37.8228 265.567 38.0608 265.296 38.3035C265.035 38.5368 264.685 38.7375 264.246 38.9055C263.808 39.0735 263.336 39.1575 262.832 39.1575ZM261.88 35.1535C262.524 35.1442 262.874 35.1395 262.93 35.1395C263.07 35.1395 263.173 35.0555 263.238 34.8875C263.285 34.7662 263.308 34.5982 263.308 34.3835C263.308 33.7955 263.131 33.5015 262.776 33.5015C262.646 33.5015 262.515 33.5715 262.384 33.7115C262.263 33.8515 262.156 34.0522 262.062 34.3135C261.969 34.5655 261.908 34.8455 261.88 35.1535ZM270.738 30.3935L273.622 37.5055C273.697 37.7015 273.734 37.8695 273.734 38.0095C273.734 38.3455 273.529 38.6488 273.118 38.9195C272.708 39.1808 272.278 39.3115 271.83 39.3115C271.55 39.3115 271.322 39.2508 271.144 39.1295C270.967 39.0082 270.822 38.8168 270.71 38.5555L267.868 31.4435C267.766 31.1915 267.714 30.9955 267.714 30.8555C267.714 30.5008 267.91 30.1835 268.302 29.9035C268.704 29.6142 269.124 29.4695 269.562 29.4695C269.852 29.4695 270.085 29.5442 270.262 29.6935C270.44 29.8428 270.598 30.0762 270.738 30.3935ZM277.68 32.2975C278.548 32.2975 279.272 32.4748 279.85 32.8295C280.429 33.1842 280.718 33.5715 280.718 33.9915C280.718 34.1128 280.667 34.2248 280.564 34.3275C280.462 34.4302 280.331 34.4815 280.172 34.4815C280.032 34.4815 279.878 34.4348 279.71 34.3415C279.542 34.2388 279.384 34.1315 279.234 34.0195C279.085 33.9075 278.889 33.8048 278.646 33.7115C278.404 33.6182 278.147 33.5715 277.876 33.5715C277.512 33.5715 277.33 33.6835 277.33 33.9075C277.33 34.0662 277.424 34.1922 277.61 34.2855C277.797 34.3788 278.068 34.4768 278.422 34.5795C278.786 34.6822 279.062 34.7802 279.248 34.8735C279.948 35.1442 280.429 35.4382 280.69 35.7555C280.952 36.0635 281.082 36.4742 281.082 36.9875C281.082 37.2395 281.012 37.4915 280.872 37.7435C280.732 37.9862 280.522 38.2195 280.242 38.4435C279.962 38.6582 279.58 38.8355 279.094 38.9755C278.618 39.1062 278.072 39.1715 277.456 39.1715C276.252 39.1715 275.352 38.8962 274.754 38.3455C274.465 38.0748 274.32 37.7948 274.32 37.5055C274.32 37.3282 274.376 37.1882 274.488 37.0855C274.61 36.9828 274.778 36.9315 274.992 36.9315C275.207 36.9315 275.534 37.0388 275.972 37.2535C276.411 37.4588 276.817 37.5615 277.19 37.5615C277.704 37.5615 277.96 37.4355 277.96 37.1835C277.96 37.0528 277.825 36.9502 277.554 36.8755C277.284 36.7915 276.929 36.6935 276.49 36.5815C276.052 36.4695 275.702 36.3295 275.44 36.1615C275.03 35.9842 274.74 35.7648 274.572 35.5035C274.414 35.2328 274.334 34.9062 274.334 34.5235C274.334 33.8702 274.642 33.3382 275.258 32.9275C275.884 32.5075 276.691 32.2975 277.68 32.2975ZM282.678 36.0775V34.4255C282.445 34.4162 282.258 34.3788 282.118 34.3135C281.978 34.2388 281.876 34.1455 281.81 34.0335C281.754 33.9215 281.726 33.7815 281.726 33.6135C281.726 33.0815 282.048 32.7922 282.692 32.7455V31.4435C282.692 31.0888 282.949 30.7715 283.462 30.4915C283.976 30.2022 284.484 30.0575 284.988 30.0575C285.296 30.0575 285.497 30.1462 285.59 30.3235C285.684 30.5008 285.73 30.7668 285.73 31.1215L285.744 32.7315H286.122C286.636 32.7315 286.986 32.8015 287.172 32.9415C287.368 33.0722 287.466 33.3148 287.466 33.6695C287.466 33.8188 287.438 33.9448 287.382 34.0475C287.326 34.1502 287.233 34.2295 287.102 34.2855C286.981 34.3415 286.832 34.3835 286.654 34.4115C286.477 34.4302 286.258 34.4395 285.996 34.4395H285.744V35.9795C285.744 36.1288 285.749 36.2548 285.758 36.3575C285.777 36.4508 285.8 36.5255 285.828 36.5815C285.856 36.6375 285.894 36.6748 285.94 36.6935C285.996 36.7122 286.062 36.7215 286.136 36.7215C286.248 36.7215 286.342 36.6842 286.416 36.6095C286.491 36.5255 286.547 36.4368 286.584 36.3435C286.631 36.2408 286.687 36.1522 286.752 36.0775C286.827 35.9935 286.911 35.9515 287.004 35.9515C287.219 35.9515 287.382 36.0028 287.494 36.1055C287.616 36.2082 287.676 36.3342 287.676 36.4835C287.676 36.7355 287.625 37.0062 287.522 37.2955C287.429 37.5848 287.289 37.8648 287.102 38.1355C286.916 38.4062 286.654 38.6302 286.318 38.8075C285.992 38.9848 285.623 39.0735 285.212 39.0735C284.288 39.0735 283.635 38.8402 283.252 38.3735C282.87 37.9068 282.678 37.1415 282.678 36.0775ZM291.293 39.1575C290.556 39.1575 289.944 38.8588 289.459 38.2615C288.974 37.6548 288.731 36.8288 288.731 35.7835C288.731 34.7195 288.969 33.8748 289.445 33.2495C289.93 32.6148 290.546 32.2975 291.293 32.2975C292.049 32.2975 292.749 32.5635 293.393 33.0955C293.645 32.6288 294.051 32.3955 294.611 32.3955C295.115 32.3955 295.507 32.5075 295.787 32.7315C296.067 32.9462 296.207 33.3475 296.207 33.9355V37.5755C296.207 38.1355 296.09 38.5275 295.857 38.7515C295.624 38.9662 295.213 39.0735 294.625 39.0735C294.009 39.0735 293.603 38.9008 293.407 38.5555C292.81 38.9568 292.105 39.1575 291.293 39.1575ZM293.197 34.4395C293.038 34.1688 292.833 34.0335 292.581 34.0335C292.338 34.0335 292.142 34.2108 291.993 34.5655C291.844 34.9202 291.769 35.3262 291.769 35.7835C291.769 36.2128 291.839 36.5955 291.979 36.9315C292.119 37.2675 292.315 37.4355 292.567 37.4355C292.828 37.4355 293.038 37.3095 293.197 37.0575V34.4395ZM300.533 37.5755C300.533 38.1355 300.417 38.5275 300.183 38.7515C299.95 38.9662 299.535 39.0735 298.937 39.0735C298.387 39.0735 298.013 38.9475 297.817 38.6955C297.621 38.4342 297.523 38.0095 297.523 37.4215V33.9775C297.523 33.6602 297.579 33.3848 297.691 33.1515C297.803 32.9088 297.967 32.7222 298.181 32.5915C298.396 32.4608 298.648 32.3955 298.937 32.3955C299.647 32.3955 300.113 32.6008 300.337 33.0115C300.879 32.6008 301.401 32.3955 301.905 32.3955C302.885 32.3955 303.375 32.8622 303.375 33.7955C303.375 34.1688 303.268 34.4722 303.053 34.7055C302.839 34.9388 302.559 35.0555 302.213 35.0555C302.008 35.0555 301.84 35.0135 301.709 34.9295C301.588 34.8455 301.471 34.7615 301.359 34.6775C301.257 34.5935 301.135 34.5515 300.995 34.5515C300.79 34.5515 300.636 34.6215 300.533 34.7615V37.5755ZM304.963 36.0775V34.4255C304.73 34.4162 304.543 34.3788 304.403 34.3135C304.263 34.2388 304.161 34.1455 304.095 34.0335C304.039 33.9215 304.011 33.7815 304.011 33.6135C304.011 33.0815 304.333 32.7922 304.977 32.7455V31.4435C304.977 31.0888 305.234 30.7715 305.747 30.4915C306.261 30.2022 306.769 30.0575 307.273 30.0575C307.581 30.0575 307.782 30.1462 307.875 30.3235C307.969 30.5008 308.015 30.7668 308.015 31.1215L308.029 32.7315H308.407C308.921 32.7315 309.271 32.8015 309.457 32.9415C309.653 33.0722 309.751 33.3148 309.751 33.6695C309.751 33.8188 309.723 33.9448 309.667 34.0475C309.611 34.1502 309.518 34.2295 309.387 34.2855C309.266 34.3415 309.117 34.3835 308.939 34.4115C308.762 34.4302 308.543 34.4395 308.281 34.4395H308.029V35.9795C308.029 36.1288 308.034 36.2548 308.043 36.3575C308.062 36.4508 308.085 36.5255 308.113 36.5815C308.141 36.6375 308.179 36.6748 308.225 36.6935C308.281 36.7122 308.347 36.7215 308.421 36.7215C308.533 36.7215 308.627 36.6842 308.701 36.6095C308.776 36.5255 308.832 36.4368 308.869 36.3435C308.916 36.2408 308.972 36.1522 309.037 36.0775C309.112 35.9935 309.196 35.9515 309.289 35.9515C309.504 35.9515 309.667 36.0028 309.779 36.1055C309.901 36.2082 309.961 36.3342 309.961 36.4835C309.961 36.7355 309.91 37.0062 309.807 37.2955C309.714 37.5848 309.574 37.8648 309.387 38.1355C309.201 38.4062 308.939 38.6302 308.603 38.8075C308.277 38.9848 307.908 39.0735 307.497 39.0735C306.573 39.0735 305.92 38.8402 305.537 38.3735C305.155 37.9068 304.963 37.1415 304.963 36.0775Z" fill="#FF701F"/>
<mask id="mask0_10_87" style="mask-type:luminance" maskUnits="userSpaceOnUse" x="248" y="49" width="38" height="38">
<path d="M283.617 84.0263V51.0228H267.116V64.2242H250.614V84.0263H283.617Z" fill="white" stroke="white" stroke-width="4" stroke-linecap="round" stroke-linejoin="round"/>
<path d="M264.64 70.825L261.34 74.1253L264.64 77.4257" stroke="black" stroke-width="4" stroke-linecap="round" stroke-linejoin="round"/>
<path d="M275.366 66.6995V74.1253H261.34" stroke="black" stroke-width="4" stroke-linecap="round" stroke-linejoin="round"/>
</mask>
<g mask="url(#mask0_10_87)">
<path d="M247.313 47.7225H286.918V87.3267H247.313V47.7225Z" fill="#FF701F"/>
</g>
<rect x="1.3902" y="13.9425" width="338.609" height="90.8839" rx="9.5" stroke="#FF2828"/>
<rect x="13.0913" y="0.634766" width="99.6823" height="25.6155" fill="#141B22"/>
<path d="M32.8166 10.4508C32.8166 10.2268 32.7206 10.0348 32.5286 9.87483C32.3473 9.71483 32.1286 9.63483 31.8726 9.63483C31.3606 9.63483 30.9393 9.92816 30.6086 10.5148C30.2779 11.0908 30.1126 11.7468 30.1126 12.4828C30.1126 13.0482 30.2193 13.5602 30.4326 14.0188C30.6459 14.4668 30.9553 14.8242 31.3606 15.0908C31.7659 15.3575 32.2353 15.4908 32.7686 15.4908C33.1633 15.4908 33.5419 15.4162 33.9046 15.2668C34.2673 15.1068 34.5606 14.9362 34.7846 14.7548C35.0086 14.5628 35.2379 14.3922 35.4726 14.2428C35.7179 14.0828 35.9313 14.0028 36.1126 14.0028C36.3473 14.0028 36.5499 14.0988 36.7206 14.2908C36.8913 14.4722 36.9766 14.6642 36.9766 14.8668C36.9766 15.0908 36.9073 15.3522 36.7686 15.6508C36.6406 15.9495 36.4326 16.2695 36.1446 16.6108C35.8566 16.9415 35.5206 17.2508 35.1366 17.5388C34.7526 17.8162 34.2726 18.0508 33.6966 18.2428C33.1313 18.4242 32.5339 18.5148 31.9046 18.5148C31.0726 18.5148 30.2993 18.3922 29.5846 18.1468C28.8806 17.8908 28.2673 17.5335 27.7446 17.0748C27.2219 16.6055 26.8113 16.0188 26.5126 15.3148C26.2139 14.6108 26.0646 13.8215 26.0646 12.9468C26.0646 11.2188 26.5819 9.8535 27.6166 8.85083C28.6513 7.84816 30.0059 7.34683 31.6806 7.34683C32.5339 7.34683 33.3233 7.49083 34.0486 7.77883C34.7739 8.06683 35.3499 8.46683 35.7766 8.97883C36.2033 9.49083 36.4166 10.0508 36.4166 10.6588C36.4166 11.3628 36.1819 12.0028 35.7126 12.5788C35.2433 13.1442 34.6353 13.4268 33.8886 13.4268C33.4619 13.4268 33.0779 13.3095 32.7366 13.0748C32.3953 12.8402 32.2246 12.5042 32.2246 12.0668C32.2246 11.8642 32.3206 11.5815 32.5126 11.2188C32.7153 10.8562 32.8166 10.6002 32.8166 10.4508ZM43.5276 14.6108C43.5276 14.0562 43.4583 13.5708 43.3196 13.1548C43.1809 12.7282 42.9783 12.5148 42.7116 12.5148C42.5303 12.5148 42.3703 12.6215 42.2316 12.8348C42.0929 13.0482 41.9916 13.3095 41.9276 13.6188C41.8636 13.9282 41.8316 14.2588 41.8316 14.6108C41.8316 15.1548 41.9063 15.6348 42.0556 16.0508C42.2049 16.4562 42.4183 16.6588 42.6956 16.6588C42.9729 16.6588 43.1809 16.4562 43.3196 16.0508C43.4583 15.6455 43.5276 15.1655 43.5276 14.6108ZM42.6956 18.5148C41.8636 18.5148 41.1116 18.3655 40.4396 18.0668C39.7783 17.7682 39.2449 17.3202 38.8396 16.7228C38.4449 16.1255 38.2476 15.4268 38.2476 14.6268C38.2476 13.4108 38.6636 12.4455 39.4956 11.7308C40.3276 11.0162 41.3943 10.6588 42.6956 10.6588C43.9969 10.6588 45.0583 11.0162 45.8796 11.7308C46.7009 12.4455 47.1116 13.4108 47.1116 14.6268C47.1116 15.8322 46.6903 16.7815 45.8476 17.4748C45.0156 18.1682 43.9649 18.5148 42.6956 18.5148ZM53.3654 14.0988C53.3654 13.5015 53.1307 13.2028 52.6614 13.2028C52.4374 13.2028 52.2507 13.2988 52.1014 13.4908C51.9627 13.6722 51.8827 13.9175 51.8614 14.2268V16.6908C51.8614 17.3415 51.728 17.7895 51.4614 18.0348C51.1947 18.2802 50.7254 18.4028 50.0534 18.4028C49.424 18.4028 48.992 18.2588 48.7574 17.9708C48.5334 17.6722 48.4214 17.1868 48.4214 16.5148V12.5788C48.4214 12.0348 48.5654 11.5975 48.8534 11.2668C49.152 10.9362 49.5467 10.7708 50.0374 10.7708C50.4427 10.7708 50.784 10.8295 51.0614 10.9468C51.3387 11.0642 51.5467 11.2668 51.6854 11.5548C52.5174 11.0108 53.5307 10.7388 54.7254 10.7388C55.4827 10.7388 56.0267 11.0375 56.3574 11.6348C56.6987 12.2322 56.8694 13.2135 56.8694 14.5788C56.8694 15.2508 56.8534 15.8002 56.8214 16.2268C56.7894 16.6428 56.736 17.0055 56.6614 17.3148C56.5974 17.6135 56.4907 17.8375 56.3414 17.9868C56.192 18.1362 56.016 18.2428 55.8134 18.3068C55.6214 18.3708 55.3707 18.4028 55.0614 18.4028C54.464 18.4028 54.032 18.2908 53.7654 18.0668C53.5094 17.8428 53.3814 17.5122 53.3814 17.0748L53.3654 14.0988ZM59.1127 14.9788V13.0908C58.8461 13.0802 58.6327 13.0375 58.4727 12.9628C58.3127 12.8775 58.1954 12.7708 58.1207 12.6428C58.0567 12.5148 58.0247 12.3548 58.0247 12.1628C58.0247 11.5548 58.3927 11.2242 59.1287 11.1708V9.68283C59.1287 9.2775 59.4221 8.91483 60.0087 8.59483C60.5954 8.26416 61.1767 8.09883 61.7527 8.09883C62.1047 8.09883 62.3341 8.20016 62.4407 8.40283C62.5474 8.6055 62.6007 8.9095 62.6007 9.31483L62.6167 11.1548H63.0487C63.6354 11.1548 64.0354 11.2348 64.2487 11.3948C64.4727 11.5442 64.5847 11.8215 64.5847 12.2268C64.5847 12.3975 64.5527 12.5415 64.4887 12.6588C64.4247 12.7762 64.3181 12.8668 64.1687 12.9308C64.0301 12.9948 63.8594 13.0428 63.6567 13.0748C63.4541 13.0962 63.2034 13.1068 62.9047 13.1068H62.6167V14.8668C62.6167 15.0375 62.6221 15.1815 62.6327 15.2988C62.6541 15.4055 62.6807 15.4908 62.7127 15.5548C62.7447 15.6188 62.7874 15.6615 62.8407 15.6828C62.9047 15.7042 62.9794 15.7148 63.0647 15.7148C63.1927 15.7148 63.2994 15.6722 63.3847 15.5868C63.4701 15.4908 63.5341 15.3895 63.5767 15.2828C63.6301 15.1655 63.6941 15.0642 63.7687 14.9788C63.8541 14.8828 63.9501 14.8348 64.0567 14.8348C64.3021 14.8348 64.4887 14.8935 64.6167 15.0108C64.7554 15.1282 64.8247 15.2722 64.8247 15.4428C64.8247 15.7308 64.7661 16.0402 64.6487 16.3708C64.5421 16.7015 64.3821 17.0215 64.1687 17.3308C63.9554 17.6402 63.6567 17.8962 63.2727 18.0988C62.8994 18.3015 62.4781 18.4028 62.0087 18.4028C60.9527 18.4028 60.2061 18.1362 59.7687 17.6028C59.3314 17.0695 59.1127 16.1948 59.1127 14.9788ZM69.7684 16.6908C69.7684 17.3308 69.635 17.7788 69.3684 18.0348C69.1017 18.2802 68.627 18.4028 67.9444 18.4028C67.315 18.4028 66.8884 18.2588 66.6644 17.9708C66.4404 17.6722 66.3284 17.1868 66.3284 16.5148V12.5788C66.3284 12.2162 66.3924 11.9015 66.5204 11.6348C66.6484 11.3575 66.835 11.1442 67.0804 10.9948C67.3257 10.8455 67.6137 10.7708 67.9444 10.7708C68.755 10.7708 69.2884 11.0055 69.5444 11.4748C70.163 11.0055 70.7604 10.7708 71.3364 10.7708C72.4564 10.7708 73.0164 11.3042 73.0164 12.3708C73.0164 12.7975 72.8937 13.1442 72.6484 13.4108C72.403 13.6775 72.083 13.8108 71.6884 13.8108C71.4537 13.8108 71.2617 13.7628 71.1124 13.6668C70.9737 13.5708 70.8404 13.4748 70.7124 13.3788C70.595 13.2828 70.4564 13.2348 70.2964 13.2348C70.0617 13.2348 69.8857 13.3148 69.7684 13.4748V16.6908ZM78.7307 14.6108C78.7307 14.0562 78.6614 13.5708 78.5227 13.1548C78.3841 12.7282 78.1814 12.5148 77.9147 12.5148C77.7334 12.5148 77.5734 12.6215 77.4347 12.8348C77.2961 13.0482 77.1947 13.3095 77.1307 13.6188C77.0667 13.9282 77.0347 14.2588 77.0347 14.6108C77.0347 15.1548 77.1094 15.6348 77.2587 16.0508C77.4081 16.4562 77.6214 16.6588 77.8987 16.6588C78.1761 16.6588 78.3841 16.4562 78.5227 16.0508C78.6614 15.6455 78.7307 15.1655 78.7307 14.6108ZM77.8987 18.5148C77.0667 18.5148 76.3147 18.3655 75.6427 18.0668C74.9814 17.7682 74.4481 17.3202 74.0427 16.7228C73.6481 16.1255 73.4507 15.4268 73.4507 14.6268C73.4507 13.4108 73.8667 12.4455 74.6987 11.7308C75.5307 11.0162 76.5974 10.6588 77.8987 10.6588C79.2001 10.6588 80.2614 11.0162 81.0827 11.7308C81.9041 12.4455 82.3147 13.4108 82.3147 14.6268C82.3147 15.8322 81.8934 16.7815 81.0507 17.4748C80.2187 18.1682 79.1681 18.5148 77.8987 18.5148ZM87.1765 15.9868C87.1765 16.8508 87.0325 17.4695 86.7445 17.8428C86.4565 18.2162 86.0138 18.4028 85.4165 18.4028C84.8192 18.4028 84.3818 18.2375 84.1045 17.9068C83.8272 17.5655 83.6885 16.9682 83.6885 16.1148L83.6565 9.36283C83.6565 9.0855 83.6832 8.84017 83.7365 8.62683C83.8005 8.4135 83.8805 8.23216 83.9765 8.08283C84.0832 7.9335 84.2112 7.81083 84.3605 7.71483C84.5098 7.61883 84.6698 7.5495 84.8405 7.50683C85.0218 7.46416 85.2138 7.44283 85.4165 7.44283C86.0032 7.44283 86.4405 7.56016 86.7285 7.79483C87.0272 8.0295 87.1765 8.50417 87.1765 9.21883V15.9868ZM92.4009 10.6588C93.3929 10.6588 94.2195 10.8615 94.8809 11.2668C95.5422 11.6722 95.8729 12.1148 95.8729 12.5948C95.8729 12.7335 95.8142 12.8615 95.6969 12.9788C95.5795 13.0962 95.4302 13.1548 95.2489 13.1548C95.0889 13.1548 94.9129 13.1015 94.7209 12.9948C94.5289 12.8775 94.3475 12.7548 94.1769 12.6268C94.0062 12.4988 93.7822 12.3815 93.5049 12.2748C93.2275 12.1682 92.9342 12.1148 92.6249 12.1148C92.2089 12.1148 92.0009 12.2428 92.0009 12.4988C92.0009 12.6802 92.1075 12.8242 92.3209 12.9308C92.5342 13.0375 92.8435 13.1495 93.2489 13.2668C93.6649 13.3842 93.9795 13.4962 94.1929 13.6028C94.9929 13.9122 95.5422 14.2482 95.8409 14.6108C96.1395 14.9628 96.2889 15.4322 96.2889 16.0188C96.2889 16.3068 96.2089 16.5948 96.0489 16.8828C95.8889 17.1602 95.6489 17.4268 95.3289 17.6828C95.0089 17.9282 94.5715 18.1308 94.0169 18.2908C93.4729 18.4402 92.8489 18.5148 92.1449 18.5148C90.7689 18.5148 89.7395 18.2002 89.0569 17.5708C88.7262 17.2615 88.5609 16.9415 88.5609 16.6108C88.5609 16.4082 88.6249 16.2482 88.7529 16.1308C88.8915 16.0135 89.0835 15.9548 89.3289 15.9548C89.5742 15.9548 89.9475 16.0775 90.4489 16.3228C90.9502 16.5575 91.4142 16.6748 91.8409 16.6748C92.4275 16.6748 92.7209 16.5308 92.7209 16.2428C92.7209 16.0935 92.5662 15.9762 92.2569 15.8908C91.9475 15.7948 91.5422 15.6828 91.0409 15.5548C90.5395 15.4268 90.1395 15.2668 89.8409 15.0748C89.3715 14.8722 89.0409 14.6215 88.8489 14.3228C88.6675 14.0135 88.5769 13.6402 88.5769 13.2028C88.5769 12.4562 88.9289 11.8482 89.6329 11.3788C90.3475 10.8988 91.2702 10.6588 92.4009 10.6588ZM97.4972 17.3148C97.4972 16.9522 97.6466 16.6588 97.9452 16.4348C98.2439 16.2108 98.6706 16.0988 99.2252 16.0988C100.388 16.0988 100.969 16.5042 100.969 17.3148C100.969 17.7735 100.82 18.0935 100.521 18.2748C100.233 18.4455 99.8012 18.5308 99.2252 18.5308C98.7239 18.5308 98.3079 18.4348 97.9772 18.2428C97.6572 18.0508 97.4972 17.7415 97.4972 17.3148ZM97.4972 11.8908C97.4972 11.5282 97.6466 11.2348 97.9452 11.0108C98.2439 10.7868 98.6706 10.6748 99.2252 10.6748C100.388 10.6748 100.969 11.0802 100.969 11.8908C100.969 12.3388 100.82 12.6535 100.521 12.8348C100.233 13.0162 99.8012 13.1068 99.2252 13.1068C98.9052 13.1068 98.6226 13.0695 98.3772 12.9948C98.1319 12.9202 97.9239 12.7922 97.7532 12.6108C97.5826 12.4188 97.4972 12.1788 97.4972 11.8908Z" fill="#FF2828"/>
</g>
</svg>
