<svg width="22" height="19" viewBox="0 0 22 19" fill="none" xmlns="http://www.w3.org/2000/svg">
<path d="M12.4377 0.348755C10.0508 0.348755 7.76161 1.29697 6.07378 2.98479C4.38596 4.67262 3.43774 6.96181 3.43774 9.34875H0.437744L4.32774 13.2388L4.39774 13.3788L8.43774 9.34875H5.43774C5.43774 5.47875 8.56774 2.34875 12.4377 2.34875C16.3077 2.34875 19.4377 5.47875 19.4377 9.34875C19.4377 13.2188 16.3077 16.3488 12.4377 16.3488C10.5077 16.3488 8.75774 15.5588 7.49774 14.2888L6.07774 15.7088C6.91116 16.5468 7.90223 17.2115 8.99381 17.6646C10.0854 18.1177 11.2559 18.3502 12.4377 18.3488C14.8247 18.3488 17.1139 17.4005 18.8017 15.7127C20.4895 14.0249 21.4377 11.7357 21.4377 9.34875C21.4377 6.96181 20.4895 4.67262 18.8017 2.98479C17.1139 1.29697 14.8247 0.348755 12.4377 0.348755ZM11.4377 5.34875V10.3488L15.7177 12.8888L16.4377 11.6788L12.9377 9.59875V5.34875H11.4377Z" fill="#FF701F"/>
</svg>
